<svg width="740" height="256" viewBox="0 0 740 256" fill="none" xmlns="http://www.w3.org/2000/svg">
<rect width="740" height="256" fill="white"/>
<rect x="27" y="28" width="211" height="202" fill="white"/>
<path fill-rule="evenodd" clip-rule="evenodd" d="M0 62.4C0 40.5579 0 29.6369 4.25075 21.2944C7.98981 13.956 13.956 7.98981 21.2944 4.25075C29.6369 0 40.558 0 62.4 0H193.6C215.442 0 226.363 0 234.706 4.25075C242.044 7.98981 248.01 13.956 251.749 21.2944C256 29.6369 256 40.558 256 62.4V193.6C256 215.442 256 226.363 251.749 234.706C248.01 242.044 242.044 248.01 234.706 251.749C226.363 256 215.442 256 193.6 256H62.4C40.5579 256 29.6369 256 21.2944 251.749C13.956 248.01 7.98981 242.044 4.25075 234.706C0 226.363 0 215.442 0 193.6V62.4ZM196 221C209.255 221 220 210.255 220 197C220 183.745 209.255 173 196 173C182.745 173 172 183.745 172 197C172 210.255 182.745 221 196 221ZM84 197C84 210.255 73.2548 221 60 221C46.7452 221 36 210.255 36 197C36 183.745 46.7452 173 60 173C73.2548 173 84 183.745 84 197ZM220 127.368C220 119.246 216.283 111.983 210.328 107.521C202.586 101.719 203.046 92.4996 203.074 92.5331C203.075 92.5349 203.075 92.5142 203.075 92.4725V92.4718C203.07 91.7576 203.022 84.9571 210.328 79.4793C216.235 74.9884 220 67.717 220 59.6316C220 46.0279 209.174 35 195.82 35C182.465 35 171.639 46.0279 171.639 59.6316C171.639 67.717 175.405 74.9884 181.311 79.4793C188.635 84.9704 188.572 91.7407 188.565 92.4688C188.564 92.51 188.564 92.5319 188.566 92.5331C188.59 92.5555 189.053 101.719 181.311 107.521C179.164 109.13 177.307 111.104 175.811 113.35C170.306 120.777 163.237 120.593 162.512 120.575H162.511C162.47 120.573 162.449 120.573 162.451 120.574C162.484 120.602 153.262 121.062 147.459 113.322C142.995 107.369 135.73 103.653 127.606 103.653C113.998 103.653 102.967 114.476 102.967 127.826C102.967 141.177 113.998 152 127.606 152C135.73 152 142.995 148.284 147.459 142.331C153.262 134.591 162.428 135.054 162.451 135.079C162.452 135.08 162.474 135.08 162.515 135.079C163.244 135.072 170.016 135.009 175.508 142.331C180 148.236 187.274 152 195.362 152C208.969 152 220 141.177 220 127.826V127.368ZM45.6721 81.4793C39.7168 77.0166 36 69.7536 36 61.6316V61.1736C36 47.8229 47.031 37 60.6385 37C68.7262 37 75.9996 40.7644 80.4918 46.6694C85.9844 53.9909 92.7566 53.9276 93.4849 53.9208C93.5261 53.9204 93.548 53.9202 93.5492 53.9215C93.5716 53.9462 102.738 54.4092 108.541 46.6694C113.005 40.7158 120.27 37 128.394 37C142.002 37 153.033 47.8229 153.033 61.1736C153.033 74.5242 142.002 85.3471 128.394 85.3471C120.27 85.3471 113.005 81.6313 108.541 75.6777C102.738 67.9379 93.5157 68.3982 93.5492 68.4256C93.551 68.4271 93.5303 68.4266 93.4885 68.4255C92.7632 68.4066 85.6936 68.2229 80.1886 75.6499C78.6926 77.8965 76.8361 79.87 74.6885 81.4793C66.9465 87.281 67.4097 96.4445 67.4344 96.4669C67.4357 96.4681 67.4355 96.49 67.4352 96.5312C67.4284 97.2593 67.3651 104.03 74.6885 109.521C80.5952 114.012 84.3607 121.283 84.3607 129.368C84.3607 142.972 73.5348 154 60.1803 154C46.8259 154 36 142.972 36 129.368C36 121.283 39.7655 114.012 45.6721 109.521C52.9778 104.043 52.9301 97.2425 52.9251 96.5283C52.9248 96.486 52.9247 96.4651 52.9262 96.4669C52.9537 96.5004 53.4141 87.281 45.6721 81.4793Z" fill="url(#paint0_linear)"/>
<defs>
<linearGradient id="paint0_linear" x1="0" y1="0" x2="0" y2="256" gradientUnits="userSpaceOnUse">
<stop stop-color="#5EF5C5"/>
<stop offset="1" stop-color="#03839E"/>
</linearGradient>
</defs>
</svg>
